<svg xmlns="http://www.w3.org/2000/svg" viewBox="0 0 24 24" width="24" height="24" fill="none">
  <!-- Document shadow -->
  <path d="M5 3.5C5 2.67157 5.67157 2 6.5 2H17.5C18.3284 2 19 2.67157 19 3.5V21.5C19 22.3284 18.3284 23 17.5 23H6.5C5.67157 23 5 22.3284 5 21.5V3.5Z" fill="#F1F1F1" stroke="#DADCE0" stroke-width="0.75"/>
  
  <!-- Main document body (white) -->
  <rect x="5" y="6" width="14" height="17" fill="white"/>
  
  <!-- Blue header -->
  <path d="M5 3.5C5 2.67157 5.67157 2 6.5 2H17.5C18.3284 2 19 2.67157 19 3.5V6H5V3.5Z" fill="#4285F4"/>
  
  <!-- Google Docs logo (stylized) -->
  <path d="M8.5 16h7M8.5 13h7M8.5 10h7" stroke="#70757A" stroke-width="1.25" stroke-linecap="round"/>
  
  <!-- Google Docs bottom shadow -->
  <rect x="5" y="22" width="14" height="1" fill="#DADCE0"/>
  
  <!-- Slight bent corner effect -->
  <path d="M19 6L18.5 6.5L18 6V5L19 6Z" fill="#DADCE0"/>
  
  <!-- Dog-ear corner -->
  <path d="M19 5V6H18V5H19Z" fill="#F1F1F1" stroke="#DADCE0" stroke-width="0.5"/>
</svg>
